<?xml version="1.0" standalone="no"?><!DOCTYPE svg PUBLIC "-//W3C//DTD SVG 1.1//EN" "http://www.w3.org/Graphics/SVG/1.1/DTD/svg11.dtd"><svg t="1675757741223" class="icon" viewBox="0 0 1024 1024" version="1.1" xmlns="http://www.w3.org/2000/svg" p-id="3357" xmlns:xlink="http://www.w3.org/1999/xlink" width="128" height="128"><path d="M715.47871 753.796129c78.616774 0 143.36-64.082581 143.36-143.36 0-62.76129-40.299355-117.594839-99.75742-136.092903l-26.425806-8.588387-5.945807-27.086452c-20.48-93.811613-105.703226-161.858065-202.157419-161.858064-96.454194 0-181.016774 68.046452-202.157419 161.858064l-5.285162 27.086452-26.425806 8.588387C231.225806 493.501935 190.926452 548.335484 190.926452 610.436129c0 78.616774 64.082581 143.36 143.36 143.36h381.192258m0 47.566452H333.625806c-105.042581 0-190.926452-85.223226-190.926451-190.926452 0-85.223226 56.154839-157.233548 132.789677-181.677419C301.254194 314.467097 402.993548 229.243871 524.552258 229.243871c121.55871 0 223.298065 85.223226 248.402581 199.514839 77.295484 24.443871 132.789677 96.454194 132.789677 181.677419 0.660645 105.703226-85.223226 190.926452-190.265806 190.926452z" p-id="3358" fill="#ffffff"></path><path d="M400.350968 519.267097L495.483871 582.689032c9.909677 6.606452 23.122581 4.624516 31.050323-3.963871L653.378065 436.025806c8.588387-9.909677 7.927742-25.104516-1.981936-33.692903-9.909677-8.588387-25.104516-7.927742-33.692903 1.981936L504.732903 531.819355l-77.956129-52.190968c-11.230968-7.267097-25.765161-4.624516-33.032258 6.606452-7.267097 10.570323-4.624516 25.765161 6.606452 33.032258z" p-id="3359" fill="#ffffff"></path><path d="M349.48129 682.446452H667.251613c13.212903 0 23.783226-10.570323 23.783226-23.783226s-10.570323-23.783226-23.783226-23.783226H349.48129c-13.212903 0-23.783226 10.570323-23.783225 23.783226s10.570323 23.783226 23.783225 23.783226" p-id="3360" fill="#ffffff"></path></svg>