<?xml version="1.0" standalone="no"?><!DOCTYPE svg PUBLIC "-//W3C//DTD SVG 1.1//EN" "http://www.w3.org/Graphics/SVG/1.1/DTD/svg11.dtd"><svg t="1675757462787" class="icon" viewBox="0 0 1024 1024" version="1.1" xmlns="http://www.w3.org/2000/svg" p-id="1920" xmlns:xlink="http://www.w3.org/1999/xlink" width="200" height="200"><path d="M701.476 71c65.748 0 119.048 53.302 119.048 119.054 0 37.254-17.11 70.51-43.9 92.341l74.545 129.126c12.722-4.639 26.457-7.17 40.783-7.17 65.749 0 119.048 53.303 119.048 119.054 0 65.752-53.3 119.054-119.048 119.054-14.326 0-28.061-2.53-40.783-7.17l-65.511 113.475c21.542 21.544 34.866 51.307 34.866 84.182 0 65.752-53.3 119.054-119.048 119.054-51.336 0-95.083-32.495-111.795-78.04H432.32C415.607 919.505 371.859 952 320.524 952c-65.748 0-119.048-53.302-119.048-119.054 0-32.875 13.324-62.638 34.866-84.182l-77.188-133.7a119.29 119.29 0 0 1-29.106 3.585C64.299 618.649 11 565.346 11 499.595c0-65.752 53.3-119.054 119.048-119.054 18.577 0 36.161 4.255 51.83 11.845l63.499-109.99c-26.79-21.83-43.9-55.088-43.9-92.342C201.476 124.302 254.775 71 320.523 71c59.906 0 109.478 44.251 117.814 101.85h145.324C591.998 115.252 641.57 71 701.476 71z m0 690.514c-39.449 0-71.428 31.98-71.428 71.432l0.01 1.258 0.015 0.658 0.04 1.177 0.013 0.284c0.025 0.532 0.055 1.062 0.092 1.59l0.058 0.793c0.032 0.398 0.067 0.794 0.105 1.19l-0.095-1.067 0.054 0.62 0.041 0.447c0.05 0.513 0.105 1.025 0.165 1.534l0.116 0.93c0.067 0.503 0.138 1.005 0.215 1.505l0.119 0.749 0.11 0.65 0.115 0.647 0.122 0.646c0.098 0.511 0.203 1.021 0.312 1.53l0.233 1.04 0.22 0.924c0.118 0.478 0.24 0.954 0.367 1.428l0.194 0.71c0.136 0.486 0.276 0.97 0.422 1.45l0.283 0.916-0.061-0.195c0.15 0.481 0.307 0.96 0.467 1.437l0.245 0.713c0.159 0.454 0.322 0.906 0.49 1.356l0.359 0.944c0.148 0.382 0.3 0.763 0.455 1.142l0.26 0.63a71 71 0 0 0 0.49 1.137l-0.384-0.888 0.222 0.518 0.162 0.37c0.443 1.007 0.91 2 1.397 2.982l0.61 1.199-0.115-0.222c0.223 0.431 0.45 0.86 0.681 1.287l0.481 0.872c0.193 0.343 0.388 0.684 0.585 1.023l0.529 0.892 0.25 0.413 0.221 0.359c0.178 0.286 0.357 0.571 0.539 0.855l-0.506-0.802 0.309 0.492 0.197 0.31c0.213 0.333 0.428 0.664 0.646 0.993l-0.53-0.813 0.301 0.465 0.23 0.348c0.191 0.29 0.385 0.577 0.581 0.864l-0.505-0.75c0.198 0.3 0.4 0.596 0.602 0.89l0.604 0.865c12.942 18.237 34.226 30.137 58.29 30.137 39.45 0 71.429-31.981 71.429-71.432 0-15.082-4.674-29.073-12.653-40.602l-0.575-0.82-0.629-0.867-0.53-0.71a71.742 71.742 0 0 0-1.986-2.514l0.495 0.605-0.363-0.445-0.366-0.441c-0.17-0.203-0.34-0.404-0.512-0.605l0.512 0.605-0.323-0.384-0.189-0.221c-0.316-0.37-0.637-0.738-0.96-1.101l-0.672-0.743c-0.25-0.272-0.5-0.542-0.754-0.81l-0.594-0.621-0.73-0.744-0.74-0.733-0.265-0.256-0.755-0.718-0.608-0.564a71.84 71.84 0 0 0-1.081-0.97l-0.548-0.477a71.816 71.816 0 0 0-1.11-0.937l-0.562-0.46c-0.39-0.316-0.784-0.629-1.181-0.937l-0.598-0.459a71.678 71.678 0 0 0-1.708-1.257l-0.74-0.52-0.508-0.35-0.535-0.362a71.53 71.53 0 0 0-1.07-0.702l0.805 0.525-0.46-0.302-0.907-0.58-0.306-0.193a71.44 71.44 0 0 0-0.978-0.599l0.838 0.512-0.524-0.321-0.527-0.318-0.569-0.335-0.358-0.208-0.725-0.412-0.684-0.379-0.33-0.18-0.94-0.497-0.92-0.47-0.75-0.372-0.982-0.469-0.398-0.185a71.04 71.04 0 0 0-0.979-0.443l0.915 0.413-0.57-0.259-0.345-0.154c-8.835-3.913-18.612-6.086-28.897-6.086z m-380.952 0c-9.906 0-19.34 2.016-27.916 5.66l-0.98 0.426 0.226-0.1c-0.383 0.168-0.763 0.34-1.142 0.513l0.915-0.413-0.49 0.22-1 0.46-0.348 0.166-1.038 0.506-0.864 0.437-0.29 0.15-0.939 0.498-0.747 0.409-0.992 0.56-0.927 0.544c-0.352 0.21-0.703 0.423-1.05 0.64l0.837-0.512-0.49 0.297-0.348 0.214c-0.298 0.185-0.595 0.372-0.89 0.561l0.75-0.474-0.436 0.274-0.314 0.2c-0.31 0.198-0.617 0.399-0.923 0.601l0.804-0.525-0.536 0.349-0.533 0.353-0.802 0.544-0.747 0.521c-0.403 0.285-0.802 0.575-1.2 0.868l-0.592 0.443-0.86 0.659-0.849 0.672c-0.385 0.31-0.768 0.624-1.147 0.941l-0.745 0.634-0.64 0.557-0.99 0.89-0.368 0.34-0.367 0.344-0.627 0.598c-0.37 0.356-0.734 0.716-1.096 1.08l-0.539 0.549-0.348 0.36 0.247-0.256c-0.345 0.357-0.687 0.717-1.025 1.081l-0.322 0.35a71.85 71.85 0 0 0-1.003 1.117l-0.492 0.567-0.137 0.16c-0.25 0.293-0.5 0.588-0.746 0.886l-0.495 0.605c-0.314 0.388-0.624 0.78-0.93 1.175l-0.562 0.733c-0.236 0.313-0.47 0.629-0.701 0.946l-0.456 0.632c-8.33 11.683-13.229 25.98-13.229 41.422 0 39.451 31.98 71.432 71.429 71.432 23.823 0 44.922-11.663 57.9-29.592l0.589-0.827 0.501-0.723 0.293-0.43 0.213-0.32c0.205-0.307 0.408-0.616 0.608-0.927l-0.531 0.813 0.325-0.495 0.321-0.498 0.506-0.802 0.504-0.825 0.186-0.31 0.536-0.915 0.392-0.69c0.239-0.427 0.474-0.856 0.704-1.288l0.343-0.65a71.145 71.145 0 0 0 1.48-3.013l0.527-1.166 0.247-0.569 0.243-0.57c0.189-0.45 0.373-0.903 0.553-1.357l0.162-0.414c0.186-0.478 0.367-0.958 0.542-1.44l0.26-0.726c0.162-0.461 0.32-0.924 0.472-1.39l0.226-0.699c0.15-0.47 0.294-0.944 0.433-1.42l0.272-0.946-0.066 0.232c0.137-0.483 0.269-0.968 0.395-1.455l0.186-0.732c0.092-0.368 0.18-0.737 0.266-1.107l-0.22 0.924 0.145-0.602 0.075-0.322c0.113-0.488 0.221-0.979 0.324-1.47l0.221-1.1c0.07-0.359 0.136-0.718 0.2-1.079l0.089-0.513 0.085-0.514a71.3 71.3 0 0 0 0.19-1.241l0.117-0.85c0.066-0.508 0.128-1.017 0.184-1.527l0.097-0.936-0.017 0.168c0.04-0.41 0.078-0.823 0.112-1.236l-0.095 1.068 0.054-0.595 0.04-0.473c0.042-0.503 0.077-1.006 0.108-1.511l0.053-0.996c0.023-0.504 0.042-1.01 0.055-1.517l0.013-0.6c0.007-0.42 0.01-0.839 0.01-1.26l-0.01-1.18c-0.63-38.907-32.364-70.251-71.418-70.251z m250.474-135.258c-17.617 10.3-38.118 16.203-59.998 16.203-7.276 0-14.4-0.652-21.315-1.902l-73.473 117.587c-0.45 0.72-0.931 1.407-1.442 2.061 15.507 20.059 24.75 45.207 24.801 72.511H582.43l0.015-1.739c0.67-41.355 22.425-77.584 54.983-98.404l-66.43-106.317z m-374.033-28.182l73.277 126.927c15.275-7.128 32.313-11.11 50.282-11.11 20.99 0 40.711 5.434 57.835 14.97l66.509-106.446c-26.273-17.585-45.156-45.352-51.006-77.655l-152.577-2.662c-8.649 22.624-24 41.933-43.626 55.5l-0.694 0.476z m430.36-49.238a118.505 118.505 0 0 1-20.386 45.071l74.235 118.81a24.042 24.042 0 0 1 1.44 2.664 119.536 119.536 0 0 1 18.862-1.49c17.969 0 35.007 3.982 50.282 11.11l63.71-110.359c-19.162-16.083-33.185-38.093-39.245-63.207l-148.897-2.6z m264.627-96.863c-5.573 0-10.997 0.638-16.203 1.846l-1.123 0.27-0.734 0.187c-0.49 0.128-0.979 0.26-1.465 0.399l-1.026 0.299-0.545 0.166-0.838 0.264-0.734 0.241-0.554 0.188-0.835 0.293-0.47 0.17c-0.464 0.17-0.924 0.343-1.382 0.522l-0.993 0.395-0.852 0.353c-0.316 0.133-0.632 0.27-0.946 0.407l0.858-0.37-0.527 0.226-0.865 0.382-0.785 0.358-0.9 0.425 0.267-0.128c-0.39 0.186-0.778 0.375-1.164 0.567l0.896-0.439-0.479 0.233-0.417 0.206c-0.308 0.154-0.616 0.31-0.922 0.468l0.862-0.438-0.502 0.253-0.5 0.258-0.868 0.458-0.615 0.334-0.351 0.195-0.94 0.533-0.873 0.512-0.72 0.435-0.495 0.306-0.712 0.45-0.633 0.41-0.335 0.22c-0.41 0.272-0.816 0.547-1.22 0.827l-0.602 0.422-0.852 0.613-1.144 0.854-0.605 0.466c-0.307 0.238-0.611 0.48-0.914 0.723l0.797-0.632-0.455 0.359-0.856 0.69-0.836 0.697-0.328 0.28a71.857 71.857 0 0 0-4.271 3.969l-0.633 0.646-0.712 0.747-0.729 0.786c-11.584 12.697-18.648 29.59-18.648 48.131 0 19.072 7.473 36.398 19.652 49.21l0.437 0.455 0.748 0.762 0.957 0.942c0.26 0.251 0.52 0.5 0.784 0.747l0.66 0.612c0.364 0.332 0.73 0.66 1.1 0.984l0.655 0.568c0.324 0.278 0.651 0.553 0.981 0.825l0.697 0.569 0.421 0.336 0.375 0.295c0.268 0.21 0.537 0.417 0.808 0.623l-0.759-0.584 0.454 0.35 0.305 0.234c0.39 0.297 0.785 0.59 1.182 0.878l0.729 0.524 0.78 0.545 0.616 0.42 0.761 0.504 0.633 0.41 0.887 0.56 0.519 0.317 0.521 0.314 0.633 0.373c0.362 0.211 0.727 0.419 1.093 0.624l-0.853-0.485 0.464 0.266 0.849 0.473 0.461 0.252c0.333 0.18 0.668 0.357 1.005 0.532l-0.882-0.466 0.507 0.27 0.51 0.266 0.862 0.438 0.962 0.471 0.97 0.457c0.348 0.162 0.699 0.32 1.05 0.476l-0.884-0.399 0.548 0.25 0.55 0.243 0.732 0.317 0.778 0.325 0.268 0.11c0.453 0.184 0.908 0.364 1.365 0.54l0.688 0.259 0.82 0.298 1.038 0.362 0.596 0.2 0.755 0.244 0.544 0.17 0.842 0.254-0.296-0.088c0.474 0.142 0.95 0.28 1.428 0.412l1.04 0.28 0.802 0.204a71.584 71.584 0 0 0 17.28 2.105c39.45 0 71.429-31.982 71.429-71.433 0-39.45-31.98-71.432-71.429-71.432z m-761.904-23.81c-39.45 0-71.429 31.98-71.429 71.432 0 39.45 31.98 71.432 71.429 71.432 1.154 0 2.302-0.027 3.443-0.082l1.138-0.063c0.418-0.026 0.834-0.056 1.25-0.09l-0.99 0.074 0.512-0.037 0.478-0.037 1.12-0.099a71.64 71.64 0 0 0 1.519-0.163l0.756-0.093a71.39 71.39 0 0 0 1.205-0.166l-1.037 0.144 0.574-0.078 0.572-0.082 0.862-0.133 0.304-0.05 0.575-0.097 1.086-0.197 0.403-0.077c0.363-0.071 0.725-0.145 1.085-0.221l-0.977 0.2 0.651-0.132 0.65-0.137 0.73-0.162 0.847-0.199 0.62-0.152 0.653-0.166 0.903-0.241 0.568-0.158 0.758-0.22c0.387-0.114 0.774-0.232 1.159-0.353l-0.922 0.283 0.585-0.178 0.582-0.182c0.466-0.148 0.93-0.301 1.392-0.458l0.69-0.24 0.536-0.191 0.534-0.195c0.293-0.11 0.586-0.22 0.878-0.332l-0.878 0.332 0.478-0.18 0.477-0.182 0.574-0.225 1.072-0.436 0.499-0.21 0.526-0.226 0.78-0.344 0.429-0.194c0.388-0.178 0.774-0.358 1.158-0.542l-0.856 0.402 0.486-0.226 0.37-0.176c0.442-0.212 0.882-0.428 1.319-0.648l0.81-0.416 0.663-0.35 0.776-0.42 0.47-0.26 0.796-0.454 0.636-0.37 0.33-0.197 0.452-0.272-0.275 0.166c0.415-0.25 0.827-0.504 1.237-0.762l0.475-0.302c0.413-0.264 0.822-0.533 1.23-0.806l0.607-0.412 0.886-0.617 0.876-0.63c17.782-12.993 29.333-34.005 29.333-57.715 0-14.7-4.44-28.362-12.05-39.719l-0.397-0.585-0.618-0.889-0.78-1.082 0.149 0.204c-0.292-0.4-0.589-0.798-0.89-1.192l-0.6-0.777 0.148 0.189a71.759 71.759 0 0 0-0.909-1.143l-0.672-0.815-0.372-0.441-0.376-0.438-0.612-0.7-0.775-0.859-0.515-0.557-0.603-0.636-0.377-0.39-0.569-0.577-0.768-0.76-1.02-0.976 0.24 0.227a71.855 71.855 0 0 0-2.406-2.174l-0.824-0.7a71.786 71.786 0 0 0-1.17-0.96l-0.833-0.658 0.24 0.188a71.73 71.73 0 0 0-1.199-0.922l-0.607-0.45a71.66 71.66 0 0 0-0.942-0.682l0.793 0.572-0.447-0.324-0.346-0.248a71.614 71.614 0 0 0-0.868-0.607l0.765 0.534-0.43-0.302-0.335-0.232-0.879-0.595-1.087-0.711 0.2 0.128a71.476 71.476 0 0 0-1.259-0.794l-0.636-0.387-0.71-0.422-0.514-0.298-0.615-0.35c-0.372-0.21-0.747-0.416-1.124-0.62l0.858 0.47-0.475-0.261-0.82-0.441-0.437-0.23a71.162 71.162 0 0 0-2.047-1.025l-1.164-0.547-0.777-0.35c-8.854-3.934-18.655-6.119-28.967-6.119z m571.428-119.055c-1.79 0-3.573-0.04-5.344-0.118a23.844 23.844 0 0 1-2.341 4.912l-86.853 139c10.352 14.065 17.685 30.488 21.046 48.314l146.531 2.559c4.745-28.599 19.682-53.754 40.954-71.606l-74.847-129.647c-12.26 4.267-25.432 6.586-39.146 6.586z m-380.952 0c-13.714 0-26.885-2.319-39.145-6.586l-65.904 114.155c19.729 20.325 32.269 47.667 33.517 77.924l145.866 2.546c6.799-30.205 25.077-56.063 50.011-72.752L366.962 299.71c-14.27 6.051-29.963 9.398-46.438 9.398z m264.333-95.013H437.143c-4.612 22.494-15.568 42.675-30.916 58.591l83.458 133.568A119.747 119.747 0 0 1 511 404.351c21.88 0 42.381 5.903 59.998 16.204l77.415-123.898c-32.215-16.069-56.123-46.312-63.556-82.562z m-264.333-95.473c-39.45 0-71.429 31.981-71.429 71.432 0 20.235 8.413 38.504 21.931 51.501l0.659 0.625 0.857 0.79 0.524 0.471 0.672 0.591 0.811 0.693 0.848 0.702 0.471 0.382 0.632 0.501c0.293 0.23 0.588 0.457 0.884 0.682l-0.773-0.595 0.507 0.392 0.51 0.388 0.565 0.42c0.314 0.232 0.63 0.46 0.948 0.687l-0.73-0.527 0.503 0.364 0.506 0.36 0.547 0.382 0.497 0.34 0.721 0.484 0.411 0.27 0.75 0.48 0.47 0.296c0.308 0.192 0.618 0.382 0.93 0.569l-0.715-0.435 0.427 0.261 0.758 0.455 0.742 0.433c0.419 0.24 0.84 0.477 1.263 0.71l0.426 0.231c0.428 0.231 0.86 0.458 1.293 0.681l0.86 0.435 0.764 0.373c0.346 0.167 0.693 0.33 1.042 0.492l-0.868-0.408 0.53 0.25 0.53 0.246 0.92 0.414 0.522 0.228 0.443 0.19c0.34 0.143 0.68 0.284 1.022 0.423l-0.942-0.39 0.502 0.21 0.44 0.18c0.322 0.13 0.646 0.259 0.97 0.385l-0.906-0.36 0.576 0.23 0.579 0.226 0.832 0.313c0.34 0.126 0.681 0.25 1.024 0.37l-0.92-0.331 0.574 0.208 0.576 0.204 0.484 0.166 0.847 0.283 0.511 0.165a70.862 70.862 0 0 0 3.62 1.046l1.06 0.267c0.371 0.09 0.745 0.179 1.12 0.264l0.841 0.185a71.708 71.708 0 0 0 15.03 1.584c31.91 0 58.933-20.925 68.096-49.803l0.138-0.437 0.193-0.633c0.144-0.48 0.283-0.963 0.417-1.448l0.278-1.034 0.178-0.695c0.13-0.524 0.256-1.05 0.375-1.578l0.175-0.793 0.196-0.95c0.104-0.522 0.203-1.048 0.296-1.575l0.135-0.793 0.157-1a71.4 71.4 0 0 0 0.222-1.595l0.097-0.802 0.06-0.542-0.032 0.298c0.058-0.518 0.11-1.037 0.157-1.558l0.066-0.782 0.061-0.829c0.036-0.528 0.066-1.057 0.09-1.588l0.044-1.182 0.019-0.8c0.007-0.437 0.011-0.874 0.011-1.313l-0.008-1.1-0.014-0.705-0.025-0.832-0.029-0.687-0.016-0.34-0.042-0.761a71.992 71.992 0 0 0-0.122-1.672l-0.11-1.182-0.08-0.745-0.129-1.085-0.138-1.026a71.264 71.264 0 0 0-0.392-2.454l-0.109-0.595-0.08-0.427-0.11-0.555-0.111-0.542-0.09-0.426-0.14-0.627c-7.176-31.868-35.65-55.671-69.683-55.671z m380.952 0c-33.883 0-62.255 23.593-69.587 55.248l-0.235 1.05-0.202 0.968-0.11 0.555-0.08 0.427a71.18 71.18 0 0 0-0.3 1.725l-0.135 0.868-0.066 0.456-0.138 1.026-0.088 0.72-0.042 0.365-0.08 0.745a71.816 71.816 0 0 0-0.146 1.64l-0.06 0.823-0.056 0.94-0.027 0.552-0.029 0.687-0.016 0.485-0.017 0.694c-0.01 0.485-0.014 0.971-0.014 1.458l0.011 1.313 0.02 0.8c0.015 0.548 0.037 1.094 0.065 1.638l0.068 1.132 0.035 0.5 0.04 0.5 0.057 0.665 0.12 1.206 0.03 0.284c0.059 0.516 0.122 1.03 0.19 1.543l0.108 0.768 0.16 1.052 0.048 0.292 0.143 0.837 0.216 1.164 0.169 0.843 0.057 0.275c0.103 0.487 0.21 0.972 0.323 1.456l0.173 0.724 0.217 0.866 0.205 0.778 0.28 1.007 0.262 0.898 0.245 0.8c0.152 0.485 0.308 0.969 0.47 1.45l0.35 1.014-0.103-0.294c9.72 27.9 36.257 47.921 67.47 47.921 5.17 0 10.213-0.55 15.073-1.593l1.081-0.241 0.9-0.215c0.477-0.116 0.951-0.238 1.424-0.364l0.707-0.193c0.481-0.134 0.96-0.272 1.437-0.416l1.064-0.33-0.35 0.11c0.488-0.151 0.973-0.309 1.456-0.471l0.951-0.328-0.229 0.08a70.895 70.895 0 0 0 3.465-1.31l0.705-0.292c0.375-0.158 0.748-0.318 1.119-0.482l-0.915 0.396 0.524-0.225 1.015-0.45 0.3-0.137c0.363-0.166 0.726-0.336 1.087-0.51l-0.896 0.422 0.521-0.243 0.994-0.479 0.977-0.488 0.502-0.259 0.76-0.401 0.777-0.423 0.547-0.304 0.571-0.326a71.38 71.38 0 0 0 1.288-0.758l0.856-0.525 0.483-0.304 0.48-0.307 0.444-0.289 0.442-0.292 0.5-0.336 0.496-0.34 0.642-0.449 0.637-0.455 0.721-0.53 0.442-0.33c0.29-0.22 0.579-0.44 0.866-0.664l-0.77 0.59 0.495-0.378 1.01-0.793 0.5-0.404 0.633-0.522 0.805-0.682 0.678-0.59 0.766-0.686c0.303-0.275 0.604-0.552 0.903-0.833l-0.709 0.657 0.434-0.4 0.275-0.257 0.774-0.737 0.762-0.75c12.977-12.933 21.008-30.826 21.008-50.596 0-39.451-31.98-71.432-71.429-71.432z" fill="#ffffff" p-id="1921"></path></svg>